<svg width="9" height="15" viewBox="0 0 9 15" fill="none" xmlns="http://www.w3.org/2000/svg">
<mask id="path-1-inside-1" fill="white">
<path d="M0.740493 0.239758L0.245733 0.731104C0.0912198 0.885739 0.00609714 1.09147 0.00609715 1.31135C0.00609716 1.53111 0.0912198 1.73709 0.245733 1.89172L5.8509 7.49665L0.239514 13.108C0.0850007 13.2624 -6.69483e-08 13.4684 -5.73423e-08 13.6882C-4.77364e-08 13.9079 0.0850007 14.114 0.239514 14.2685L0.731225 14.76C1.05098 15.08 1.57184 15.08 1.8916 14.76L8.59665 8.07897C8.75105 7.92458 8.85983 7.71884 8.85983 7.49713L8.85983 7.49457C8.85983 7.27469 8.75092 7.06896 8.59665 6.91457L1.90977 0.239758C1.75538 0.085123 1.54343 0.000243119 1.32367 -5.78594e-08C1.10379 -4.82482e-08 0.894763 0.085123 0.740493 0.239758Z"/>
</mask>
<path d="M0.740493 0.239758L0.245733 0.731104C0.0912198 0.885739 0.00609714 1.09147 0.00609715 1.31135C0.00609716 1.53111 0.0912198 1.73709 0.245733 1.89172L5.8509 7.49665L0.239514 13.108C0.0850007 13.2624 -6.69483e-08 13.4684 -5.73423e-08 13.6882C-4.77364e-08 13.9079 0.0850007 14.114 0.239514 14.2685L0.731225 14.76C1.05098 15.08 1.57184 15.08 1.8916 14.76L8.59665 8.07897C8.75105 7.92458 8.85983 7.71884 8.85983 7.49713L8.85983 7.49457C8.85983 7.27469 8.75092 7.06896 8.59665 6.91457L1.90977 0.239758C1.75538 0.085123 1.54343 0.000243119 1.32367 -5.78594e-08C1.10379 -4.82482e-08 0.894763 0.085123 0.740493 0.239758Z" fill="black"/>
<path d="M0.740493 0.239758L3.55911 3.07796L3.5657 3.07141L3.57227 3.06483L0.740493 0.239758ZM0.245733 0.731104L-2.57288 -2.1071L-2.57836 -2.10167L-2.58381 -2.09621L0.245733 0.731104ZM0.245733 1.89172L-2.58381 4.71903L-2.58263 4.72021L0.245733 1.89172ZM5.8509 7.49665L8.67933 10.3251L11.5078 7.49658L8.67927 4.66816L5.8509 7.49665ZM0.239514 13.108L3.06682 15.9376L3.06794 15.9365L0.239514 13.108ZM0.239514 14.2685L-2.58891 17.097L-2.58821 17.0977L0.239514 14.2685ZM0.731225 14.76L3.56073 11.9326L3.55895 11.9309L0.731225 14.76ZM1.8916 14.76L-0.931752 11.9265L-0.937905 11.9326L1.8916 14.76ZM8.59665 8.07897L11.42 10.9125L11.4251 10.9074L8.59665 8.07897ZM8.59665 6.91457L11.4262 4.08726L11.4225 4.08359L8.59665 6.91457ZM1.90977 0.239758L-0.920892 3.06596L-0.916099 3.07074L1.90977 0.239758ZM1.32367 -5.78594e-08L1.32811 -4L1.32367 -4L1.32367 -5.78594e-08ZM-2.07812 -2.59845L-2.57288 -2.1071L3.06435 3.56931L3.55911 3.07796L-2.07812 -2.59845ZM-2.58381 -2.09621C-3.49055 -1.18875 -3.9939 0.0350668 -3.9939 1.31135L4.0061 1.31135C4.0061 2.14788 3.67299 2.96023 3.07528 3.55841L-2.58381 -2.09621ZM-3.9939 1.31135C-3.9939 2.58656 -3.49122 3.81091 -2.58381 4.71903L3.07528 -0.935589C3.67366 -0.336733 4.0061 0.475658 4.0061 1.31135L-3.9939 1.31135ZM-2.58263 4.72021L3.02253 10.3251L8.67927 4.66816L3.0741 -0.936766L-2.58263 4.72021ZM3.02247 4.66822L-2.58891 10.2796L3.06794 15.9365L8.67933 10.3251L3.02247 4.66822ZM-2.5878 10.2785C-3.49881 11.1888 -4 12.415 -4 13.6882L4 13.6882C4 14.5218 3.66882 15.3361 3.06682 15.9376L-2.5878 10.2785ZM-4 13.6882C-4 14.9609 -3.49911 16.1868 -2.58891 17.097L3.06794 11.4401C3.66911 12.0413 4 12.8549 4 13.6882L-4 13.6882ZM-2.58821 17.0977L-2.0965 17.5891L3.55895 11.9309L3.06724 11.4394L-2.58821 17.0977ZM-2.09828 17.5873C-0.216178 19.4709 2.839 19.4709 4.72111 17.5873L-0.937905 11.9326C0.30468 10.6891 2.31815 10.6891 3.56073 11.9326L-2.09828 17.5873ZM4.71495 17.5935L11.42 10.9125L5.77331 5.24547L-0.931746 11.9265L4.71495 17.5935ZM11.4251 10.9074C12.12 10.2125 12.8598 9.04335 12.8598 7.49713L4.85983 7.49713C4.85983 6.39434 5.3821 5.63667 5.76823 5.25054L11.4251 10.9074ZM12.8598 7.49713L12.8598 7.49457L4.85983 7.49457L4.85983 7.49713L12.8598 7.49713ZM12.8598 7.49457C12.8598 5.94456 12.1148 4.77643 11.4262 4.08726L5.76711 9.74188C5.38702 9.36149 4.85983 8.60483 4.85983 7.49457L12.8598 7.49457ZM11.4225 4.08359L4.73564 -2.59122L-0.916099 3.07074L5.77078 9.74555L11.4225 4.08359ZM4.74043 -2.58644C3.80726 -3.52107 2.56574 -3.99862 1.32811 -4L1.31923 4C0.521111 3.99911 -0.296506 3.69132 -0.920888 3.06595L4.74043 -2.58644ZM1.32367 -4C0.0651229 -4 -1.16992 -3.50886 -2.09128 -2.58532L3.57227 3.06483C2.95945 3.67911 2.14245 4 1.32367 4L1.32367 -4Z" fill="black" mask="url(#path-1-inside-1)"/>
</svg>
